# xmcd CD database file
#
# Track frame offsets:
#	150
#	25828
#	48235
#	69042
#	89563
#	107895
#	132633
#	153859
#	172619
#	193186
#
# Disc length: 2846 seconds
#
# Revision: 0
# Processed by: cddbd v1.5.2PL0 Copyright (c) Steve Scherf et al.
# Submitted via: CDex 1.51
#
DISCID=7b0b1c0a
DTITLE=Clive Barnes - Goldtooth Cinnamon
DYEAR=1900
DGENRE=Blues
TTITLE0=Whereafter
TTITLE1=Prayer Drift Out
TTITLE2=Red Eyed Jim
TTITLE3=Goldtooth Cinnamon
TTITLE4=St. Cloud
TTITLE5=Bloodshot Soul
TTITLE6=Windmill Blade
TTITLE7=Neonwild
TTITLE8=Kitty Twist
TTITLE9=Drowning a River
EXTD=
EXTT0=
EXTT1=
EXTT2=
EXTT3=
EXTT4=
EXTT5=
EXTT6=
EXTT7=
EXTT8=
EXTT9=
PLAYORDER=
